<svg xmlns="http://www.w3.org/2000/svg" width="1120" height="620" viewBox="0 0 1120 620" role="img" aria-labelledby="title description">
  <title id="title">Plaintext and encrypted pipeline cost</title>
  <desc id="description">Line chart comparing plaintext and encrypted local synthetic pipeline latency across four payload sizes. Dots show means and capped whiskers show p99. This is a directional single-machine snapshot, not a performance guarantee.</desc>
  <defs>
    <linearGradient id="background" x1="0" y1="0" x2="1" y2="1">
      <stop offset="0" stop-color="#0f172a"/>
      <stop offset="1" stop-color="#111827"/>
    </linearGradient>
    <pattern id="grid" width="40" height="40" patternUnits="userSpaceOnUse">
      <path d="M40 0H0V40" fill="none" stroke="#94a3b8" stroke-opacity=".035"/>
    </pattern>
    <style>text { font-family: Inter, ui-sans-serif, system-ui, -apple-system, BlinkMacSystemFont, "Segoe UI", sans-serif; }</style>
  </defs>
  <rect width="1120" height="620" rx="26" fill="url(#background)"/>
  <rect width="1120" height="620" rx="26" fill="url(#grid)"/>
  <path d="M0 26A26 26 0 0 1 26 0H1094A26 26 0 0 1 1120 26V32H0Z" fill="#2dd4bf"/>
  <g>
    <text x="42" y="59" fill="#f8fafc" font-size="29" font-weight="780">Plaintext and encrypted pipeline cost</text>
    <text x="42" y="84" fill="#94a3b8" font-size="15">Local synthetic pipeline comparison; mean with p99 whiskers</text>
    <line x1="92" y1="107" x2="120" y2="107" stroke="#2dd4bf" stroke-width="4" stroke-linecap="round"/>
    <circle cx="106" cy="107" r="5" fill="#0f172a" stroke="#2dd4bf" stroke-width="2"/>
    <text x="130" y="112" fill="#e2e8f0" font-size="14" font-weight="650">Plaintext pipeline</text>
    <line x1="337" y1="107" x2="365" y2="107" stroke="#818cf8" stroke-width="4" stroke-linecap="round"/>
    <circle cx="351" cy="107" r="5" fill="#0f172a" stroke="#818cf8" stroke-width="2"/>
    <text x="375" y="112" fill="#e2e8f0" font-size="14" font-weight="650">Encrypted pipeline</text>
    <line x1="92" y1="485.00" x2="1070" y2="485.00" stroke="#334155" stroke-width="1"/>
    <text x="78" y="490.00" fill="#94a3b8" font-size="13" text-anchor="end">0</text>
    <line x1="92" y1="415.00" x2="1070" y2="415.00" stroke="#334155" stroke-width="1"/>
    <text x="78" y="420.00" fill="#94a3b8" font-size="13" text-anchor="end">2</text>
    <line x1="92" y1="345.00" x2="1070" y2="345.00" stroke="#334155" stroke-width="1"/>
    <text x="78" y="350.00" fill="#94a3b8" font-size="13" text-anchor="end">4</text>
    <line x1="92" y1="275.00" x2="1070" y2="275.00" stroke="#334155" stroke-width="1"/>
    <text x="78" y="280.00" fill="#94a3b8" font-size="13" text-anchor="end">6</text>
    <line x1="92" y1="205.00" x2="1070" y2="205.00" stroke="#334155" stroke-width="1"/>
    <text x="78" y="210.00" fill="#94a3b8" font-size="13" text-anchor="end">8</text>
    <line x1="92" y1="135.00" x2="1070" y2="135.00" stroke="#334155" stroke-width="1"/>
    <text x="78" y="140.00" fill="#94a3b8" font-size="13" text-anchor="end">10</text>
    <line x1="92" y1="135" x2="92" y2="485" stroke="#64748b" stroke-width="1.5"/>
    <line x1="92" y1="485" x2="1070" y2="485" stroke="#64748b" stroke-width="1.5"/>
    <line x1="92.00" y1="485" x2="92.00" y2="492" stroke="#64748b"/>
    <text x="92.00" y="512" fill="#cbd5e1" font-size="14" font-weight="650" text-anchor="middle">1 KB</text>
    <line x1="418.00" y1="485" x2="418.00" y2="492" stroke="#64748b"/>
    <text x="418.00" y="512" fill="#cbd5e1" font-size="14" font-weight="650" text-anchor="middle">10 KB</text>
    <line x1="744.00" y1="485" x2="744.00" y2="492" stroke="#64748b"/>
    <text x="744.00" y="512" fill="#cbd5e1" font-size="14" font-weight="650" text-anchor="middle">100 KB</text>
    <line x1="1070.00" y1="485" x2="1070.00" y2="492" stroke="#64748b"/>
    <text x="1070.00" y="512" fill="#cbd5e1" font-size="14" font-weight="650" text-anchor="middle">1 MB</text>
    <g aria-label="Plaintext pipeline">
      <path d="M92.00 484.90 L418.00 484.17 L744.00 476.96 L1070.00 400.08" fill="none" stroke="#2dd4bf" stroke-width="3" stroke-linecap="round" stroke-linejoin="round"/>
      <line x1="92.00" y1="484.90" x2="92.00" y2="484.86" stroke="#2dd4bf" stroke-width="2" stroke-opacity=".65"/>
      <line x1="86.00" y1="484.86" x2="98.00" y2="484.86" stroke="#2dd4bf" stroke-width="2"/>
      <circle cx="92.00" cy="484.90" r="6" fill="#0f172a" stroke="#2dd4bf" stroke-width="3"/>
      <text x="92.00" y="472.90" fill="#2dd4bf" font-size="11.5" font-weight="750" text-anchor="middle">0.003</text>
      <line x1="418.00" y1="484.17" x2="418.00" y2="484.09" stroke="#2dd4bf" stroke-width="2" stroke-opacity=".65"/>
      <line x1="412.00" y1="484.09" x2="424.00" y2="484.09" stroke="#2dd4bf" stroke-width="2"/>
      <circle cx="418.00" cy="484.17" r="6" fill="#0f172a" stroke="#2dd4bf" stroke-width="3"/>
      <text x="418.00" y="472.17" fill="#2dd4bf" font-size="11.5" font-weight="750" text-anchor="middle">0.02</text>
      <line x1="744.00" y1="476.96" x2="744.00" y2="476.35" stroke="#2dd4bf" stroke-width="2" stroke-opacity=".65"/>
      <line x1="738.00" y1="476.35" x2="750.00" y2="476.35" stroke="#2dd4bf" stroke-width="2"/>
      <circle cx="744.00" cy="476.96" r="6" fill="#0f172a" stroke="#2dd4bf" stroke-width="3"/>
      <text x="744.00" y="464.96" fill="#2dd4bf" font-size="11.5" font-weight="750" text-anchor="middle">0.23</text>
      <line x1="1070.00" y1="400.08" x2="1070.00" y2="387.83" stroke="#2dd4bf" stroke-width="2" stroke-opacity=".65"/>
      <line x1="1064.00" y1="387.83" x2="1076.00" y2="387.83" stroke="#2dd4bf" stroke-width="2"/>
      <circle cx="1070.00" cy="400.08" r="6" fill="#0f172a" stroke="#2dd4bf" stroke-width="3"/>
      <text x="1070.00" y="388.08" fill="#2dd4bf" font-size="11.5" font-weight="750" text-anchor="middle">2.4</text>
    </g>
    <g aria-label="Encrypted pipeline">
      <path d="M92.00 460.15 L418.00 459.09 L744.00 445.99 L1070.00 324.05" fill="none" stroke="#818cf8" stroke-width="3" stroke-linecap="round" stroke-linejoin="round"/>
      <line x1="92.00" y1="460.15" x2="92.00" y2="458.85" stroke="#818cf8" stroke-width="2" stroke-opacity=".65"/>
      <line x1="86.00" y1="458.85" x2="98.00" y2="458.85" stroke="#818cf8" stroke-width="2"/>
      <circle cx="92.00" cy="460.15" r="6" fill="#0f172a" stroke="#818cf8" stroke-width="3"/>
      <text x="92.00" y="433.15" fill="#818cf8" font-size="11.5" font-weight="750" text-anchor="middle">0.71</text>
      <line x1="418.00" y1="459.09" x2="418.00" y2="458.42" stroke="#818cf8" stroke-width="2" stroke-opacity=".65"/>
      <line x1="412.00" y1="458.42" x2="424.00" y2="458.42" stroke="#818cf8" stroke-width="2"/>
      <circle cx="418.00" cy="459.09" r="6" fill="#0f172a" stroke="#818cf8" stroke-width="3"/>
      <text x="418.00" y="432.09" fill="#818cf8" font-size="11.5" font-weight="750" text-anchor="middle">0.74</text>
      <line x1="744.00" y1="445.99" x2="744.00" y2="444.63" stroke="#818cf8" stroke-width="2" stroke-opacity=".65"/>
      <line x1="738.00" y1="444.63" x2="750.00" y2="444.63" stroke="#818cf8" stroke-width="2"/>
      <circle cx="744.00" cy="445.99" r="6" fill="#0f172a" stroke="#818cf8" stroke-width="3"/>
      <text x="744.00" y="479.99" fill="#818cf8" font-size="11.5" font-weight="750" text-anchor="middle">1.1</text>
      <line x1="1070.00" y1="324.05" x2="1070.00" y2="314.12" stroke="#818cf8" stroke-width="2" stroke-opacity=".65"/>
      <line x1="1064.00" y1="314.12" x2="1076.00" y2="314.12" stroke="#818cf8" stroke-width="2"/>
      <circle cx="1070.00" cy="324.05" r="6" fill="#0f172a" stroke="#818cf8" stroke-width="3"/>
      <text x="1070.00" y="358.05" fill="#818cf8" font-size="11.5" font-weight="750" text-anchor="middle">4.6</text>
    </g>
    <text x="581" y="538" fill="#cbd5e1" font-size="14" font-weight="650" text-anchor="middle">Payload size (log-spaced categories)</text>
    <text x="24" y="310" fill="#cbd5e1" font-size="14" font-weight="650" text-anchor="middle" transform="rotate(-90 24 310)">Latency (ms)</text>
    <rect x="42" y="557" width="1036" height="43" rx="12" fill="#0b1524" stroke="#334155"/>
    <text x="560" y="575" fill="#94a3b8" font-size="11.5" text-anchor="middle">Directional snapshot · Apple M5 · v22.19.0 · darwin/arm64 · commit 414d4bf7 · 2026-08-29</text>
    <text x="560" y="591" fill="#94a3b8" font-size="11.5" text-anchor="middle">Mean dots + p99 whiskers · 20 timed iterations per point · no pass/fail budget</text>
  </g>
</svg>
